PathFileType	4	(X/Y/Z)	/Users/itak/Documents/Research/Walk-IL/dataset/trc/00363_00011.trc
DataRate	CameraRate	NumFrames	NumMarkers	Units	OrigDataRate	OrigDataStartFrame	OrigNumFrames
100.000000	100.000000	4	56	mm	100.000000	260	416
Frame#	Time	RPSI			LPSI			L3			STRN			T10			C7			CLAV			RBAK			LBAK			LSHO			LUPA			LAEL			LAOL			LWPS			LFRA			LHPS			LHTS			RSHO			RUPA			RAEL			RAOL			RWPS			RFRA			RIFD			RHTS			RHPS			RBHD			LFHD			RFHD			LBHD			LHIP			RHIP			RASI			LASI			LKNE			LTHI			LANK			LTIP			LTOE			LMT1			LMT5			LHEE			RKNE			RTIP			RTOE			RMT1			RMT5			RHEE			LWTS			LIFD			RWTS			RTHI			RANK			*53			*54			*55			
		X1	Y1	Z1	X2	Y2	Z2	X3	Y3	Z3	X4	Y4	Z4	X5	Y5	Z5	X6	Y6	Z6	X7	Y7	Z7	X8	Y8	Z8	X9	Y9	Z9	X10	Y10	Z10	X11	Y11	Z11	X12	Y12	Z12	X13	Y13	Z13	X14	Y14	Z14	X15	Y15	Z15	X16	Y16	Z16	X17	Y17	Z17	X18	Y18	Z18	X19	Y19	Z19	X20	Y20	Z20	X21	Y21	Z21	X22	Y22	Z22	X23	Y23	Z23	X24	Y24	Z24	X25	Y25	Z25	X26	Y26	Z26	X27	Y27	Z27	X28	Y28	Z28	X29	Y29	Z29	X30	Y30	Z30	X31	Y31	Z31	X32	Y32	Z32	X33	Y33	Z33	X34	Y34	Z34	X35	Y35	Z35	X36	Y36	Z36	X37	Y37	Z37	X38	Y38	Z38	X39	Y39	Z39	X40	Y40	Z40	X41	Y41	Z41	X42	Y42	Z42	X43	Y43	Z43	X44	Y44	Z44	X45	Y45	Z45	X46	Y46	Z46	X47	Y47	Z47	X48	Y48	Z48	X49	Y49	Z49	X50	Y50	Z50	X51	Y51	Z51	X52	Y52	Z52	X53	Y53	Z53	X54	Y54	Z54	X55	Y55	Z55	X56	Y56	Z56	

261	2.6	450.0003356933594	944.5883178710938	117.8163757324219	320.0434265136719	949.7025756835938	123.2168502807617	378.9714050292969	1015.033874511719	132.1978759765625	380.9909362792969	1193.033325195312	-102.2801132202148	352.4377136230469	1130.88134765625	136.3792572021484	334.0971069335938	1374.751953125	89.89533233642578	370.0587463378906	1318.903076171875	-61.71460723876953	390.9994506835938	1236.59765625	150.4877777099609	230.3907012939453	1335.98876953125	82.95065307617188	193.8866119384766	1355.510131835938	-11.42970085144043	130.1597595214844	1234.584716796875	-32.8349494934082	148.9842834472656	1050.6611328125	-125.5265274047852	174.3169860839844	1010.261047363281	-53.98529434204102	225.5251312255859	870.4165649414062	-293.3059997558594	170.388427734375	968.2053833007812	-186.8332214355469	250.7735443115234	812.3169555664062	-324.5396118164062	298.1496276855469	848.3311157226562	-344.7420959472656	503.8039855957031	1362.091552734375	66.73847198486328	557.9865112304688	1303.061767578125	100.3442306518555	584.1580810546875	1045.0849609375	167.8851013183594	490.8862609863281	1043.059204101562	169.4981384277344	620.9586791992188	792.4974365234375	161.0746307373047	600.38623046875	975.019775390625	163.7974548339844	567.2763671875	623.9759521484375	144.5697174072266	580.29052734375	689.4536743164062	112.1831130981445	615.916748046875	706.4297485351562	168.8990020751953	431.7964477539062	1570.1328125	67.82433319091797	327.83154296875	1606.198852539062	-109.2282028198242	426.9751892089844	1604.771118164062	-91.00666046142578	287.4043579101562	1563.633911132812	68.02784729003906	210.2543334960938	895.3240356445312	40.83255004882812	551.1924438476562	896.3048706054688	26.65180587768555	502.3572692871094	931.2893676757812	-72.07550048828125	262.9325256347656	921.5992431640625	-82.83045196533203	277.0151062011719	437.8743896484375	16.85348510742188	251.1863708496094	576.5004272460938	9.163913726806641	311.0419921875	48.30389785766602	196.3177337646484	290.1737365722656	225.1349945068359	99.46651458740234	419.6448974609375	37.2551383972168	12.72443580627441	440.1575927734375	26.23714065551758	92.79027557373047	329.7003479003906	41.28963470458984	73.08954620361328	367.1357116699219	50.09378433227539	247.6572418212891	575.4657592773438	471.3431091308594	-164.2472229003906	587.3453369140625	364.8975830078125	-208.9256286621094	580.2658081054688	109.2897033691406	-427.9503479003906	533.8333129882812	85.92652893066406	-382.1348571777344	643.4454345703125	66.32365417480469	-341.5763549804688	566.2957153320312	43.36551666259766	-196.2617797851562	286.9137268066406	903.7826538085938	-289.16552734375	334.7471313476562	777.942626953125	-378.1361083984375	568.6019287109375	795.4537353515625	105.1727600097656	569.2212524414062	718.4822998046875	-98.53907775878906	618.0342407226562	53.83097839355469	-242.4534759521484	nan	nan	nan	nan	nan	nan	nan	nan	nan	
262	2.61	455.1974487304688	942.7288818359375	108.1121292114258	325.5776062011719	948.49609375	115.8094024658203	384.5003662109375	1013.263732910156	122.8169479370117	383.3870849609375	1191.280029296875	-110.6500015258789	358.18359375	1129.3505859375	128.0972900390625	338.5668334960938	1372.945190429688	81.99092864990234	372.8997192382812	1317.154663085938	-70.01042175292969	396.2533264160156	1234.650024414062	141.8148956298828	234.8188323974609	1334.11474609375	76.26387786865234	197.2304077148438	1353.614135742188	-17.69559097290039	133.49560546875	1232.552124023438	-38.51775741577148	151.9125671386719	1048.876342773438	-131.8582305908203	177.7699584960938	1008.320373535156	-60.69915008544922	228.5242919921875	870.3103637695312	-301.3499755859375	173.4198913574219	966.9549560546875	-193.77099609375	253.8232727050781	812.6857299804688	-333.20703125	301.0876770019531	849.1763305664062	-353.3553161621094	508.04248046875	1360.264770507812	57.0465087890625	562.5384521484375	1301.378784179688	90.18241119384766	589.0848999023438	1043.456298828125	158.1767120361328	495.8463745117188	1041.624633789062	160.6938171386719	625.43603515625	790.8662109375	152.4415740966797	605.1586303710938	973.4146118164062	154.2318572998047	571.4642333984375	622.1477661132812	137.8269805908203	584.1043090820312	687.4660034179688	104.7519302368164	620.4872436523438	704.8933715820312	160.9008026123047	435.5803833007812	1568.300048828125	59.59194183349609	330.3439331054688	1604.796508789062	-116.6088104248047	429.6238098144531	1603.4033203125	-99.12596893310547	291.2431335449219	1561.724853515625	60.8041877746582	214.2020263671875	894.6328125	34.96168899536133	555.1093139648438	893.707275390625	15.59033393859863	504.8616943359375	928.5498046875	-82.18472290039062	265.1707763671875	920.2953491210938	-89.55744171142578	278.1090698242188	437.0716857910156	12.56923580169678	252.9071960449219	575.7244262695312	4.49721622467041	312.0525817871094	48.93788146972656	196.366455078125	291.5534973144531	224.9616241455078	97.65294647216797	419.62353515625	37.09171676635742	12.43113231658936	440.5139465332031	26.33331108093262	92.31424713134766	329.8125305175781	41.56240844726562	73.05621337890625	368.3326721191406	51.3598518371582	247.492919921875	577.3277587890625	467.8924560546875	-172.1294097900391	588.8641357421875	364.0863342285156	-220.7013092041016	578.3508911132812	117.6909332275391	-451.9557800292969	532.2642822265625	92.89417266845703	-406.5752258300781	642.1473388671875	70.53878021240234	-368.0331115722656	566.005859375	42.27238464355469	-222.7961730957031	289.6943359375	904.0213012695312	-297.2736511230469	337.9723815917969	779.2425537109375	-387.4721984863281	572.5294799804688	793.4960327148438	97.07528686523438	571.9459228515625	714.9637451171875	-107.0934677124023	617.4563598632812	54.24025344848633	-269.1294860839844	nan	nan	nan	nan	nan	nan	nan	nan	nan	
263	2.62	460.2853088378906	940.8403930664062	98.44602966308594	331.0147705078125	947.2654418945312	108.3098831176758	389.9060363769531	1011.458679199219	113.4794235229492	385.8385314941406	1189.518920898438	-119.1168212890625	363.8411865234375	1127.740478515625	119.7133255004883	343.0880737304688	1371.136474609375	73.97488403320312	375.7918395996094	1315.401000976562	-78.40681457519531	401.5379028320312	1232.692749023438	133.0249633789062	239.3391876220703	1332.231323242188	69.45637512207031	200.6272430419922	1351.673583984375	-24.05265998840332	136.9006500244141	1230.41455078125	-44.1407585144043	154.6964569091797	1046.84521484375	-137.8826293945312	181.3066558837891	1006.228576660156	-67.07518005371094	231.2623748779297	869.7651977539062	-308.9229431152344	176.2695922851562	965.38037109375	-200.3145141601562	256.5459289550781	812.6150512695312	-341.3990173339844	303.6896057128906	849.595703125	-361.5682678222656	512.3308715820312	1358.421508789062	47.25341033935547	567.1448974609375	1299.628540039062	79.89057159423828	594.0325317382812	1041.73486328125	148.2399291992188	500.8331909179688	1040.07177734375	151.5791473388672	630.0540161132812	789.1705322265625	143.4721984863281	609.9871215820312	971.7301635742188	144.4002838134766	575.9693603515625	620.3032836914062	130.5691833496094	588.3096313476562	685.649169921875	96.74071502685547	625.244140625	703.3148193359375	152.5234680175781	439.3478698730469	1566.4814453125	51.30267715454102	332.8617553710938	1603.409912109375	-124.0480575561523	432.2760314941406	1602.073974609375	-107.3120803833008	295.0819396972656	1559.807983398438	53.49977111816406	218.1462097167969	893.9501342773438	28.87434959411621	559.0047607421875	891.1129760742188	4.637049674987793	507.3909912109375	925.8062744140625	-92.23025512695312	267.4869384765625	918.9849243164062	-96.44853210449219	279.2747802734375	436.2859802246094	8.263492584228516	254.6766815185547	574.9696044921875	-0.2629638612270355	313.2044677734375	49.68487167358398	196.4349975585938	292.9740905761719	224.8885192871094	95.83195495605469	419.6147766113281	36.92808532714844	12.12601852416992	440.9344482421875	26.45023536682129	91.80742645263672	329.9974365234375	41.87244033813477	73.045166015625	369.6995849609375	52.78852462768555	247.2963104248047	579.0711059570312	464.6705322265625	-180.3437805175781	590.1918334960938	363.2930908203125	-232.1649475097656	576.90869140625	125.2485198974609	-473.8370666503906	530.945556640625	99.32647705078125	-428.9764404296875	640.825927734375	74.51043701171875	-391.9073181152344	565.0760498046875	41.65891265869141	-247.1529846191406	292.1399841308594	903.8677978515625	-305.0351257324219	340.8790283203125	780.1102905273438	-396.3603820800781	576.6299438476562	791.4996948242188	88.62246704101562	574.834716796875	711.6241455078125	-115.8247375488281	616.4293823242188	54.87458801269531	-293.4154052734375	nan	nan	nan	nan	nan	nan	nan	nan	nan	
264	2.63	465.2539978027344	938.9345092773438	88.84580230712891	336.3268432617188	946.0201416015625	100.7065734863281	395.1745910644531	1009.647216796875	104.2415390014648	388.3475952148438	1187.776123046875	-127.6795349121094	369.3869323730469	1126.088256835938	111.2405700683594	347.6622314453125	1369.357666015625	65.84014129638672	378.7355651855469	1313.668212890625	-86.90615081787109	406.8541870117188	1230.769897460938	124.136360168457	243.9493103027344	1330.375	62.51348114013672	204.0822296142578	1349.723876953125	-30.52184867858887	140.3834228515625	1228.215087890625	-49.72440719604492	157.352783203125	1044.610717773438	-143.6074981689453	184.9425659179688	1004.027954101562	-73.1175537109375	233.7398376464844	868.7874755859375	-316.0137939453125	178.9497528076172	963.5126342773438	-206.4666290283203	258.9252319335938	812.1007080078125	-349.1036376953125	305.9366455078125	849.567138671875	-369.3699035644531	516.6729125976562	1356.601928710938	37.35171890258789	571.8109130859375	1297.839233398438	69.46180725097656	599.0128173828125	1039.95361328125	138.0471954345703	505.8579406738281	1038.445678710938	142.1685791015625	634.8253784179688	787.4501953125	134.1258087158203	614.8844604492188	969.998779296875	134.2666473388672	580.789794921875	618.5123901367188	122.7471084594727	592.82763671875	683.95068359375	88.19495391845703	630.18359375	701.724853515625	143.7332305908203	443.10302734375	1564.703491210938	42.9531135559082	335.3898010253906	1602.065551757812	-131.54833984375	434.9352111816406	1600.808837890625	-115.5655059814453	298.9226989746094	1557.9033203125	46.11084747314453	222.0701904296875	893.27197265625	22.56508445739746	562.86572265625	888.5691528320312	-6.163218975067139	509.9687805175781	923.154541015625	-102.2278671264648	269.8839416503906	917.6840209960938	-103.50634765625	280.5406494140625	435.5354309082031	3.905903100967407	256.5253601074219	574.2442016601562	-5.131078243255615	314.4593505859375	50.58126831054688	196.5169525146484	294.4039611816406	224.9351043701172	93.96881866455078	419.6172180175781	36.76841735839844	11.82846641540527	441.3877563476562	26.56443786621094	91.30539703369141	330.25	42.21821975708008	73.05519866943359	371.1915588378906	54.39562606811523	247.0596923828125	580.6743774414062	461.7722473144531	-189.0877838134766	591.3231201171875	362.4632263183594	-243.4509887695312	575.9111328125	131.5159606933594	-493.488037109375	529.8937377929688	104.8016510009766	-449.1571960449219	639.5552368164062	77.85264587402344	-413.0387573242188	563.6910400390625	41.28335952758789	-269.0138854980469	294.2555236816406	903.3236694335938	-312.445556640625	343.4305419921875	780.5162353515625	-404.796142578125	580.8844604492188	789.4876708984375	79.79784393310547	577.8292236328125	708.5883178710938	-124.8676452636719	615.1140747070312	55.44605255126953	-315.0673217773438	nan	nan	nan	nan	nan	nan	nan	nan	nan	
